<svg xmlns="http://www.w3.org/2000/svg" xml:space="preserve" width="2048" height="2048" style="shape-rendering:geometricPrecision;text-rendering:geometricPrecision;image-rendering:optimizeQuality;fill-rule:evenodd;clip-rule:evenodd"><defs><style>.fil0{fill:none}.fil1{fill:#616161}.fil2{fill:#9e9e9e}.fil4{fill:#b9b9b9;fill-rule:nonzero}</style></defs><g id="Layer_x0020_1"><path class="fil0" d="M0 0h2048v2048H0z"/><path class="fil0" d="M255.999 255.999h1536v1536h-1536z"/><g id="_348164608"><path id="_348165688" class="fil1" d="M1096.71 1551.55c0 48.546-19.683 92.508-51.502 124.331-31.817 31.82-75.772 51.506-124.317 51.506-48.484 0-92.398-19.72-124.247-51.602-31.804-31.833-51.451-75.766-51.451-124.236 0-48.487 19.644-92.415 51.44-124.243 31.851-31.881 75.77-51.595 124.258-51.595 48.55 0 92.51 19.677 124.33 51.5 31.811 31.816 51.49 75.773 51.49 124.338z"/><path id="_348165448" class="fil2" d="M1008.8 1551.55c0 24.265-9.837 46.238-25.742 62.144-15.903 15.904-37.872 25.744-62.136 25.744-24.234 0-46.183-9.856-62.102-25.792-15.897-15.91-25.716-37.87-25.716-62.096 0-24.235 9.818-46.19 25.71-62.099 15.92-15.935 37.872-25.788 62.108-25.788 24.266 0 46.238 9.835 62.142 25.74 15.901 15.903 25.736 37.874 25.736 62.147z"/><path id="_348165304" class="fil1" d="M1551.82 1551.55c0 48.546-19.683 92.508-51.502 124.331-31.817 31.82-75.772 51.506-124.317 51.506-48.484 0-92.398-19.72-124.247-51.602-31.804-31.833-51.451-75.766-51.451-124.236 0-48.487 19.644-92.415 51.44-124.243 31.851-31.881 75.77-51.595 124.258-51.595 48.55 0 92.51 19.677 124.33 51.5 31.811 31.816 51.49 75.773 51.49 124.338z"/><path id="_348165136" class="fil2" d="M1463.91 1551.55c0 24.265-9.837 46.238-25.742 62.144-15.902 15.904-37.872 25.744-62.136 25.744-24.233 0-46.183-9.856-62.102-25.792-15.896-15.91-25.716-37.87-25.716-62.096 0-24.235 9.818-46.19 25.71-62.099 15.92-15.935 37.872-25.788 62.108-25.788 24.266 0 46.238 9.835 62.142 25.74 15.901 15.903 25.736 37.874 25.736 62.147z"/><path id="_348165016" d="m295.859 320.612 204.466 80.375 16.534 6.5 3.215 17.5 142.668 776.508c3.366.462 8.547.542 14.496.542h67.063l-12.826 41.377-51.282 165.448-.5 1.5a8.903 8.903 0 0 0-.452 4.218 9.513 9.513 0 0 0 1.566 4.11l.058-.04a8.912 8.912 0 0 0 3.162 2.783c1.228.637 2.681.984 4.247.984h44.705v64.002h-44.705c-11.741 0-23.213-2.9-33.498-8.236a73.365 73.365 0 0 1-26.16-22.782v-.125c-6.832-9.754-11.095-20.81-12.625-32.197a72.636 72.636 0 0 1 3.428-33.697l38.474-124.122c-8.126-.827-15.865-2.483-23.386-5.718-17.705-7.614-29.817-20.994-34.217-45.055l-.022.004L460.54 453.987l-187.931-73.875 23.251-59.5z" style="fill:#878787;fill-rule:nonzero"/><path id="_348164920" class="fil4" d="m561.441 444.597 1172.7 50.967c22.089 12.12 37.505 34.238 41.255 59.146l-237.924 703.264c-13.668 9.964-30.267 15.709-47.76 15.709H746.46L561.445 444.597z"/><path id="_348164776" d="m1168.42 470.977 1.023.045 564.698 24.542c22.089 12.12 37.505 34.238 41.255 59.146l-237.924 703.264c-13.668 9.964-30.267 15.709-47.76 15.709H1168.42V470.977z" style="fill:#acacac;fill-rule:nonzero"/><path id="_348164680" class="fil4" d="m561.441 444.597 606.979 26.38v802.703H746.455z"/></g></g></svg>